<?xml version="1.0" encoding="UTF-8"?>
<svg width="25px" height="25px" viewBox="0 0 25 25" version="1.1" xmlns="http://www.w3.org/2000/svg" xmlns:xlink="http://www.w3.org/1999/xlink">
    <!-- Generator: sketchtool 51.3 (57544) - http://www.bohemiancoding.com/sketch -->
    <title>0A3B0FAE-D204-42D4-883A-CA0814AC1AB2</title>
    <desc>Created with sketchtool.</desc>
    <defs></defs>
    <g id="Screens" stroke="none" stroke-width="1" fill="none" fill-rule="evenodd">
        <g id="Mobile-Home-Full-Ideal-ordination-2" transform="translate(-14.000000, -472.000000)" fill="#C0C0C0" fill-rule="nonzero">
            <g id="Cookies-warning-2" transform="translate(0.000000, 449.000000)">
                <g id="cookie" transform="translate(14.000000, 23.000000)">
                    <path d="M24.9967143,12.2094839 C24.9895823,11.9067986 24.7969219,11.6396602 24.511888,11.5373165 C23.0729432,11.0206666 22.0086701,9.66661505 22.0382726,8.04464382 C22.0423271,7.82960494 21.9516145,7.62369692 21.7902174,7.48150955 C21.593991,7.30856048 21.3822306,7.27945894 21.1378391,7.31529876 C18.6700368,7.67770078 16.4334856,5.8770676 16.2115157,3.36344676 C16.1691637,2.88351554 15.681553,2.57409199 15.2288205,2.74040044 C14.7926967,2.9006542 14.3811928,2.97853499 13.9708124,2.97853499 C12.4269888,2.97853499 11.1490502,1.66232521 10.6150819,0.439474724 C10.4747875,0.118088288 10.1263965,-0.0585717128 9.78391622,0.0176000952 C4.19417465,1.26457165 0,6.58341463 0,12.500011 C0,19.3832081 5.62002795,25 12.5053425,25 C19.3654022,25 25.157916,19.3697803 24.9967143,12.2094839 Z M12.5053425,23.5351575 C6.41792742,23.5351575 1.46546983,18.5848201 1.46546983,12.500011 C1.46546983,7.49298415 4.90531831,2.90358389 9.55339782,1.58639754 C10.4045427,3.0844431 12.0000485,4.44337745 13.9708124,4.44337745 C14.2744089,4.44337745 14.5822552,4.41290873 14.8920556,4.35241074 C15.5141475,6.9444983 17.825975,8.83790484 20.5654266,8.83790484 C20.583745,8.83790484 20.6019168,8.83775835 20.6200398,8.83741656 C20.8710259,10.5100225 21.9691513,11.9766228 23.5430659,12.7197374 C23.4253398,18.7034235 18.5191422,23.5351575 12.5053425,23.5351575 Z" id="Shape"></path>
                    <path d="M8,15 C6.8972,15 6,15.8972 6,17 C6,18.1028 6.89715556,19 8,19 C9.1028,19 10,18.1028 10,17 C10,15.8972 9.1028,15 8,15 Z M8,17.6666667 C7.6324,17.6666667 7.33333333,17.3676 7.33333333,17 C7.33333333,16.6324 7.63235556,16.3333333 8,16.3333333 C8.3676,16.3333333 8.66666667,16.6324 8.66666667,17 C8.66666667,17.3676 8.3676,17.6666667 8,17.6666667 Z" id="Shape"></path>
                    <path d="M15,10 C13.8972,10 13,10.8972 13,12 C13,13.1028 13.8971556,14 15,14 C16.1028,14 17,13.1028 17,12 C17,10.8972 16.1028,10 15,10 Z M15,12.6666667 C14.6324,12.6666667 14.3333333,12.3676 14.3333333,12 C14.3333333,11.6324 14.6323556,11.3333333 15,11.3333333 C15.3676,11.3333333 15.6666667,11.6324 15.6666667,12 C15.6666667,12.3676 15.3676,12.6666667 15,12.6666667 Z" id="Shape"></path>
                    <path d="M14.5,18 C13.6729,18 13,18.6729 13,19.5 C13,20.3271 13.6729,21 14.5,21 C15.3271,21 16,20.3271 16,19.5 C16,18.6729 15.3271,18 14.5,18 Z" id="Shape"></path>
                    <path d="M8.5,7 C7.6729,7 7,7.6729 7,8.5 C7,9.3271 7.6729,10 8.5,10 C9.3271,10 10,9.3271 10,8.5 C10,7.6729 9.3271,7 8.5,7 Z" id="Shape"></path>
                    <circle id="Oval" cx="19.5" cy="15.5" r="1"></circle>
                    <circle id="Oval" cx="4.5" cy="12.5" r="1"></circle>
                </g>
            </g>
        </g>
    </g>
</svg>