<?xml version="1.0" encoding="UTF-8"?>
<svg width="30px" height="27px" viewBox="0 0 30 27" version="1.1" xmlns="http://www.w3.org/2000/svg" xmlns:xlink="http://www.w3.org/1999/xlink">
    <!-- Generator: sketchtool 49.2 (51160) - http://www.bohemiancoding.com/sketch -->
    <title>AB01705B-3271-4BB8-969B-2DF33DE58A4B</title>
    <desc>Created with sketchtool.</desc>
    <defs></defs>
    <g id="Page-1" stroke="none" stroke-width="1" fill="none" fill-rule="evenodd">
        <g id="Desktop-HD-Carrito-lateral" transform="translate(-1129.000000, -437.000000)" fill="#C0C0C0" fill-rule="nonzero">
            <g id="Eliminar-producto" transform="translate(1081.000000, 405.000000)">
                <g id="Favoritos" transform="translate(37.000000, 32.000000)">
                    <g id="favoritos" transform="translate(11.000000, 0.000000)">
                        <path d="M27.5147461,2.42587605 C24.2523047,-0.808503252 18.9421289,-0.808503252 15.6786328,2.42514352 L15.0000586,3.0966325 L14.3221875,2.42544874 C11.0583398,-0.808625341 5.74886719,-0.808259074 2.48501953,2.42544874 C0.882480469,4.01345915 0,6.119798 0,8.35585632 C0,10.5926472 0.882480469,12.6986198 2.48525391,14.2873017 L14.2754297,25.9488067 C14.4782227,26.1498871 14.7393164,26.25 15,26.25 C15.2606836,26.25 15.5214258,26.1494598 15.7245703,25.9484404 L27.5147461,14.2873017 C29.117168,12.698986 30,10.5927082 30,8.35622259 C30,6.119798 29.117168,4.01382541 27.5147461,2.42587605 Z M26.0641992,12.6971547 L15,23.6410822 L3.93615234,12.697521 C2.75542969,11.5277871 2.10527344,9.98586531 2.10527344,8.35622259 C2.10527344,6.72657987 2.75542969,5.18465802 3.93615234,4.01492421 C5.16773437,2.79397411 6.78527344,2.18389584 8.40316406,2.18389584 C10.0214062,2.18389584 11.6396484,2.79470664 12.8712305,4.01565675 L14.2747266,5.40441805 C14.6810156,5.80688413 15.3185742,5.80688413 15.7249219,5.40441805 L17.1287695,4.01492421 C19.5922852,1.57339027 23.600332,1.57339027 26.0638477,4.01492421 C27.2442187,5.18471907 27.8947266,6.72657987 27.8947266,8.35622259 C27.8947266,9.98586531 27.2442188,11.5274209 26.0641992,12.6971547 Z" id="Shape"></path>
                    </g>
                </g>
            </g>
        </g>
    </g>
</svg>