<?xml version="1.0" encoding="UTF-8"?>
<svg width="117px" height="29px" viewBox="0 0 117 29" version="1.1" xmlns="http://www.w3.org/2000/svg" xmlns:xlink="http://www.w3.org/1999/xlink">
    <!-- Generator: sketchtool 51.3 (57544) - http://www.bohemiancoding.com/sketch -->
    <title>AEF2B083-C4FF-4C37-B3CB-1EDB72BA75FA</title>
    <desc>Created with sketchtool.</desc>
    <defs>
        <polygon id="path-1" points="0 0 95.4303043 0 95.4303043 22.0767542 0 22.0767542"></polygon>
    </defs>
    <g id="Screens" stroke="none" stroke-width="1" fill="none" fill-rule="evenodd">
        <g id="Mobile-Home-Full-Ideal-ordination-2" transform="translate(-102.000000, -35.000000)">
            <g id="Header-Busca-New">
                <g id="Logo" transform="translate(102.000000, 35.000000)">
                    <path d="M19.9207521,0.720776044 C19.728927,0.371070297 19.206021,-0.453813079 18.3015573,0.32228166 C15.526592,2.303068 8.13710523,8.50644085 10.9768156,16.7173099 C11.1675627,17.2975501 11.6295919,17.1463376 11.7698621,17.0436445 C14.0459552,15.4653914 16.3425307,10.0051567 17.0719737,7.60508964 C17.2265119,7.09684774 17.4406586,6.87288313 17.5059108,7.49114178 C17.6711024,9.0561477 17.4147225,12.5644599 13.5434683,17.8273322 C13.4363632,17.9728365 13.4421339,18.2190953 13.8262915,18.1053628 C16.5154587,17.3090741 26.8397123,13.3356543 19.9207521,0.720776044" id="Fill-1" fill="#5CB8A3"></path>
                    <path d="M11.8022573,6.15561003 C11.8841012,6.01412709 12.0426618,5.70979827 11.7980914,5.44787723 C11.7195802,5.36459896 11.6385054,5.28137369 11.5547388,5.19836047 C9.74154691,3.40069476 6.68550687,1.67294887 1.95759508,0.105981474 C1.53228875,-0.093123044 1.13479782,-0.0452022549 0.923298285,0.541085276 C0.177666303,2.89895773 -1.73999353,10.7033141 3.90114759,14.9301504 C5.75683166,16.3205954 7.94604407,17.0112591 9.00777172,17.2856374 C9.60663584,17.4760483 9.67681523,17.1679558 9.68175022,17.0256247 C9.78327,14.0608439 7.40152892,8.43232461 5.36549343,5.39020265 C5.02549191,4.88210446 4.79540606,4.37559656 5.42041922,4.91269107 C6.50752681,5.84688141 8.25150067,7.59312769 9.64803848,10.1497336 C9.75071189,10.3377061 10.0316858,10.3271041 10.0810357,10.130332 C10.3939909,8.8809989 10.9290206,7.70895393 11.6004355,6.50998003 C11.666449,6.39213942 11.7337443,6.27403375 11.8022573,6.15561003" id="Fill-3" fill="#5CB8A3"></path>
                    <path d="M83.0127119,15.4339355 C83.2614005,15.6562772 83.6068462,15.7691101 84.0396036,15.7691101 C84.4632613,15.7691101 84.8535723,15.6613864 85.2000546,15.4491399 C85.559438,15.2288911 85.7811153,14.9493019 85.8593272,14.6183131 C85.9414555,14.2787064 85.8417612,13.9743099 85.5708991,13.7376871 C85.3170846,13.5162072 84.9691624,13.4037436 84.5369809,13.4037436 C84.1128049,13.4037436 83.7249704,13.5114673 83.3843626,13.7242678 C83.0313722,13.9441473 82.8126897,14.2193044 82.734593,14.5428449 C82.6528102,14.8895922 82.7488761,15.1975589 83.0127119,15.4339355" id="Fill-5" fill="#5CB8A3"></path>
                    <g id="Group-9" transform="translate(20.676566, 6.307644)">
                        <mask id="mask-2" fill="white">
                            <use xlink:href="#path-1"></use>
                        </mask>
                        <g id="Clip-8"></g>
                        <path d="M92.3593427,12.1117254 C92.2150783,11.7922985 92.2150783,11.7922985 92.1762797,11.6369963 C92.105435,11.3537364 92.0900415,11.0926208 92.1307857,10.8608946 C92.1699277,10.6376989 92.2555936,10.4639334 92.3925904,10.3304834 C92.5201451,10.2046291 92.6935371,10.1406502 92.906586,10.1406502 C93.2252152,10.1406502 93.3490502,10.2159057 93.3970048,10.2753857 L93.3973482,10.2753857 C93.46722,10.3640797 93.4797523,10.5016781 93.4342584,10.6844415 C93.3816113,10.9011516 92.5817765,12.5591686 92.3593427,12.1117254 M2.96308235,13.1297199 C2.92851841,12.9042455 2.92491323,12.8806405 2.92491323,12.8806405 C2.90391163,12.743977 2.88674411,12.6089494 2.87363956,12.4767264 C2.83672939,12.10635 2.84273803,11.7738352 2.89149379,11.4886472 C2.93744552,11.2174819 3.02648773,10.9985514 3.15575916,10.8372896 C3.27255553,10.6922124 3.43038227,10.6218064 3.63856707,10.6218064 C3.87009971,10.6218064 4.00721097,10.6778391 4.04578067,10.7883268 C4.09751214,10.9365007 4.08091686,11.1455568 3.99628099,11.4101781 C3.90426307,11.6986381 3.74689413,12.0385149 3.52869494,12.4204016 C3.43009614,12.5932322 3.32697657,12.7674067 3.21956511,12.942516 L3.08972143,13.1540845 C3.08972143,13.1540845 2.99781797,13.355019 2.96308235,13.1297199 M94.8842272,15.738013 L94.5233087,15.1858666 C94.3817339,14.9691564 94.2275123,14.735502 94.0600717,14.4858968 C93.8920589,14.2355904 93.7139745,13.9810772 93.5266769,13.7234088 C93.4257318,13.5847003 93.3257024,13.4487963 93.2263597,13.3157553 C93.0281893,13.0457002 93.2002078,12.8500826 93.2427261,12.7856363 C93.4811829,12.4234983 93.6989243,12.0769022 93.8916011,11.7529179 C94.1597578,11.3009174 94.326855,10.9184464 94.4017054,10.5833607 C94.5052256,10.1217779 94.3528924,9.8407383 94.2067968,9.68572829 C93.999871,9.46714841 93.6249323,9.36057538 93.0609792,9.36057538 C92.4192573,9.36057538 91.8693244,9.42911165 91.4257729,9.56413922 C90.9780439,9.70051063 90.6068821,9.8854943 90.3235036,10.113189 C90.0362909,10.3432208 89.8167756,10.6099455 89.67171,10.9062933 C89.5284184,11.1984927 89.4391473,11.5013845 89.4058423,11.8063797 C89.3720223,12.1062916 89.3720223,12.4066125 89.4055562,12.6991625 C89.4381173,12.9913619 89.4955713,13.2564507 89.5755147,13.486833 C89.657976,13.7391844 89.780781,13.9903088 89.941984,14.2368174 C90.3539473,14.8898693 88.4898407,17.0104623 88.2704397,17.1685106 C88.1091795,17.298747 87.90666,17.4210372 87.6750701,17.5263833 C87.45029,17.6291585 87.2261394,17.6793483 86.990086,17.6793483 C86.6908561,17.6793483 86.4514837,17.5606806 86.2574334,17.3167429 C86.0448423,17.0510115 85.8620654,16.7156336 85.7147681,16.3196657 C85.5643234,15.9163359 85.4404311,15.4684838 85.3464103,14.9886714 C85.2501578,14.4961217 85.1560798,14.042602 85.0664653,13.6286967 C84.9755347,13.2108767 84.8760775,12.8524781 84.7710695,12.5636675 C84.6424848,12.2128646 84.4557593,12.0349508 84.2162152,12.0349508 C83.9889172,12.0349508 83.783937,12.1911294 83.606196,12.499046 C83.4556368,12.7599278 83.2939188,13.0899303 83.1258487,13.4797632 C82.9584654,13.8671422 82.7787787,14.2867735 82.5856441,14.7394167 C82.3976025,15.1817182 82.1787738,15.5966168 81.9348806,15.9726607 C81.6952792,16.343037 81.4182526,16.6580234 81.1116407,16.9089141 C80.8169888,17.1493461 80.478102,17.2661441 80.0752375,17.2661441 C79.875522,17.2661441 79.6755204,17.192174 79.4641882,17.0404359 C79.2540577,16.8899833 79.0886773,16.6602437 78.9722815,16.3573519 C78.8531389,16.0478577 78.8083316,15.6615305 78.8387182,15.2092963 C78.8692191,14.7534979 79.0293921,14.2135045 79.3156319,13.6043321 C79.5005833,13.2019372 79.7488829,12.8105267 80.0533203,12.4423706 C80.3595888,12.0723448 80.6972168,11.7468998 81.0567619,11.4750918 C81.4157347,11.2029917 81.7925618,10.9847624 82.1768854,10.8269478 C82.5531402,10.6717041 82.9155466,10.5929429 83.2531173,10.5929429 C83.6195866,10.5929429 83.9052542,10.6236177 84.1021084,10.6841493 C84.3093204,10.7481282 84.4745292,10.8086598 84.5936718,10.8640497 C84.7341021,10.9283792 84.8438598,10.9677598 84.9290679,10.9834185 L84.9968796,10.9891445 C85.0532463,10.9885602 85.1683259,10.9670586 85.3473259,10.7827761 C85.4040932,10.7145904 85.5246664,10.5074624 85.2513023,10.2414389 C85.1037188,10.0980561 84.8783665,9.97968055 84.5622552,9.87912562 C84.2629109,9.78406295 83.8876861,9.71909079 83.447797,9.68549458 C83.0048749,9.65248265 82.5189196,9.68292374 82.0110471,9.77635043 C81.6576251,9.84190686 81.2936737,9.94403935 80.9229697,10.0808198 C80.9226835,10.0809366 80.9228552,10.080586 80.9225691,10.0807029 C80.920509,10.0814625 80.918735,10.0823389 80.9168466,10.08304 C80.6865157,10.1682868 80.4536669,10.2668551 80.2191585,10.3788036 C80.1215898,10.4253708 80.0237349,10.4770798 79.9256511,10.5313012 C77.9989403,11.5422258 76.6290865,13.0986945 75.8316552,14.1921782 C75.0939668,15.0654461 74.4386825,15.854811 73.6830255,16.3486461 C73.5332103,16.4364053 73.373724,16.4978133 73.2061118,16.5208924 C73.1424775,16.5297735 73.0731779,16.5348568 72.9990142,16.5348568 C72.6834752,16.5348568 72.0726548,16.438275 71.5274716,15.7910658 C71.3845806,15.6212735 71.2422046,15.4060824 71.1107586,15.1347419 C70.5522419,13.4983434 70.4225127,10.8811692 70.836021,8.0978252 C70.9425741,7.43110105 71.2087851,6.25762915 71.2751662,5.99014487 C71.3415473,5.72266059 71.6356269,5.71623348 71.7176877,5.71541549 C73.0929778,5.703204 74.0906969,5.68731153 74.4105278,5.67247076 C75.0058402,5.64273081 75.3300202,5.38763331 75.3259,5.22239837 C75.3217798,5.05342402 74.8854387,4.61556312 72.9398435,4.61556312 C72.6150912,4.61556312 72.2596091,4.62830047 71.8839837,4.65301559 L71.7526522,4.65652129 C71.7526522,4.65652129 71.5755406,4.63180616 71.5755406,4.45809913 C71.772681,3.06920247 72.7835046,-4.67405269 69.4136919,4.45073718 C69.3907447,4.51319692 69.2548923,4.73656791 69.0246187,4.73656791 C66.4546408,4.85149618 66.0702028,5.68964865 66.1787015,5.7266337 C66.2353543,5.74579815 66.2883447,5.7490117 66.8452019,5.74293517 C67.195076,5.73937105 67.7379702,5.73358666 68.6001231,5.73206753 C68.6001231,5.73206753 68.8311407,5.75374439 68.748336,5.95894421 C68.6656458,6.16420247 67.448068,9.19925513 67.0575069,13.9570047 C66.8924698,16.0554534 64.512193,17.3946861 63.946466,17.3809555 C62.5584147,17.3042393 65.1418404,10.0194117 63.1969892,9.99341118 C62.7114345,9.99726744 62.0928315,10.2261891 61.6334286,10.6950754 C61.1984037,11.139305 60.74541,11.7058832 60.2864077,12.378976 C60.2549912,12.4251343 60.1874083,12.5367906 60.0904691,12.6965917 C58.8942362,14.6692445 57.4355692,16.8529399 56.3395374,16.8535241 L56.3392513,16.8535241 C55.4789868,16.8535241 55.433779,15.4223839 55.418786,14.9522122 C55.4059676,14.4074277 55.3962394,13.8798795 55.3899446,13.3692755 C55.3833637,12.8617682 55.3705453,12.3930572 55.3514321,11.9772237 C55.3307167,11.5359156 55.2691425,11.2235 55.16299,11.0221564 C55.0497988,10.8246691 54.7933733,10.6895247 54.3811238,10.6143276 C54.0184314,10.54807 53.6011461,10.4978802 53.1412283,10.4648099 L51.7935206,10.3666505 C51.5157501,10.3457332 51.2127434,10.2988154 51.0721414,10.2770216 C50.9315394,10.2552279 50.9423549,10.0986988 50.9423549,10.0986988 C50.9476769,10.0468145 50.9501948,9.99726744 50.9501948,9.94947317 L50.9499087,9.78879563 C50.9646155,9.47585421 50.8614959,9.20141697 50.6523955,8.9876282 C50.4423223,8.77348886 50.1708466,8.66469556 49.8457509,8.66469556 C49.4983948,8.66469556 49.1836569,8.79148475 48.9102355,9.04109 C48.6412204,9.28718957 48.4684007,9.5916589 48.3966405,9.94567534 C48.3533211,10.1949885 48.373121,10.421982 48.4561546,10.6150288 C48.5335801,10.7948707 48.6495753,10.9466088 48.8009356,11.0653933 C48.8942697,11.1619751 49.0193637,11.2289338 49.2015111,11.286544 C49.2626275,11.3054163 49.3256895,11.3259246 49.3889804,11.3469588 C49.3889804,11.3469588 49.5555054,11.4398012 49.461084,11.616897 C49.3667771,11.7940513 48.5632227,13.3017909 48.5632227,13.3017909 C48.0128892,14.3170977 46.9540537,16.0189942 46.0405127,16.0194032 C45.1873441,16.0194032 44.753292,11.8040426 44.7516897,11.7877411 C44.6994432,11.2032254 44.6080547,10.692154 44.4801567,10.2804689 C44.3286819,9.79358674 44.0697957,9.54696133 43.7108801,9.54696133 C43.398374,9.54696133 43.1827499,9.90670373 43.0476988,10.1771679 C42.8672681,10.539189 42.6676098,11.0003627 42.4541031,11.5481271 C42.2423131,12.0922104 42.0139279,12.6827442 41.7702063,13.3187351 C41.5289454,13.9470719 41.2629633,14.5363787 40.9792414,15.070354 C40.6982091,15.5991876 40.386218,16.0433588 40.0521952,16.3910065 C39.7344817,16.7215933 39.4001728,16.8823292 39.0303844,16.8823292 C38.8648895,16.8823292 38.7292661,16.7955634 38.6041721,16.6092943 C38.4613955,16.3967909 38.3427107,16.1099669 38.251494,15.755892 C38.1574732,15.3903653 38.0842823,14.965008 38.0342676,14.4915643 C37.9837951,14.0159588 37.9582155,13.5156381 37.9582155,13.004742 C37.9582155,12.4923267 37.974353,11.976581 38.0060556,11.4711771 C38.0372433,10.9722003 38.0917788,10.5070535 38.1682887,10.088766 C38.197588,9.90980043 38.1737823,9.76670977 38.0972724,9.66714813 C38.0331803,9.58394638 37.9393884,9.53697011 37.8192158,9.52791374 C37.60239,9.51132013 37.3575811,9.60708394 37.0700824,9.81228377 C36.8003234,10.0048631 36.525872,10.288123 36.2542246,10.6537667 C35.978972,11.0237924 35.7784553,11.4600758 35.6583971,11.9500546 C35.5287824,12.4663846 35.4270362,13.0227379 35.3559054,13.6039231 C35.3315848,13.8019363 35.1447449,14.829513 35.0508958,15.0506637 C34.7738692,15.7034235 34.2102023,16.4624058 33.5059334,16.559046 C33.4424708,16.568044 33.3729995,16.5730688 33.2988931,16.5730688 C32.983354,16.5730688 32.3724764,16.4764286 31.8272932,15.8292194 C31.0945261,14.9586393 30.3710868,12.9103805 31.0866863,8.09490379 C31.1881464,7.45920501 31.3304079,6.76998601 31.5009958,6.08538283 C31.5217113,6.00241479 31.5235425,5.98652232 31.5642867,5.83671243 C31.605031,5.68690253 31.7959338,5.71448064 31.7959338,5.71448064 C32.0563079,5.71448064 32.3607453,5.72400443 32.684353,5.7342878 C33.0479039,5.74614872 33.4358899,5.75830179 33.8120875,5.75830179 C34.8798501,5.75830179 35.5151628,5.64495108 35.7004003,5.42122952 C35.7457226,5.3664823 35.7601433,5.30758668 35.7472677,5.22976032 C35.6737907,4.78389475 35.1423987,4.59347726 33.9705437,4.59347726 C33.6222147,4.59347726 33.2512246,4.60855174 32.8585462,4.62421049 C32.6432082,4.63303315 32.425009,4.64185581 32.207096,4.64834134 C32.1808869,4.64904248 32.092188,4.65038632 32.1284115,4.65038632 C32.1495275,4.65038632 31.9310994,4.70349756 31.9680096,4.4679735 C31.9694975,4.45839127 31.9777379,4.32984924 31.9961071,4.25798256 C32.4244368,2.44431291 33.9459942,-4.55322318 29.594886,4.63735684 C29.594886,4.63735684 29.5731977,4.72908911 29.4732827,4.72908911 C29.3733105,4.72908911 29.3733105,4.72967339 29.3733105,4.72967339 C26.3518268,4.82093823 26.0303936,5.64717136 26.1412385,5.68491597 C26.2470477,5.72084931 26.6086529,5.73048996 27.8994788,5.73048996 C27.8994788,5.73048996 28.7761097,5.72967197 28.9365688,5.72873712 C29.0970279,5.72780227 28.9991158,5.95608123 28.9991158,5.95608123 C28.600772,6.92920284 28.2571927,7.98003395 27.9776483,9.08047061 C27.4965571,10.9755307 27.3181293,12.7477748 27.4415638,14.2909803 C27.4386453,14.7056452 27.3674001,16.214086 26.1284201,17.1908301 C25.6169425,17.5468916 25.6647254,17.5325766 25.4595163,17.6293922 C25.3626342,17.6750246 25.2709597,17.7080365 25.1862094,17.7264414 C24.4942438,17.8581386 24.1695488,16.8810438 24.0223659,16.4860692 C23.8722073,16.0840248 23.7483722,15.6365232 23.6541226,15.1554839 C23.5574122,14.6628174 23.4639636,14.2095314 23.3740058,13.7953339 C23.2835902,13.3792667 23.1841903,13.0211019 23.0788389,12.7307722 C22.9504831,12.3796771 22.7638149,12.2016464 22.5239846,12.2016464 C22.2968583,12.2016464 22.0916492,12.3579419 21.9139082,12.6657416 C21.7631201,12.9269741 21.6013448,13.2570349 21.433332,13.6466342 C21.2662348,14.0338378 21.086262,14.4534691 20.8935852,14.9061124 C20.7050858,15.3487644 20.4858566,15.7639551 20.2423639,16.1397069 C20.0028197,16.5103754 19.7256787,16.8250696 19.419124,17.0756097 C19.124701,17.3159833 18.785757,17.4328397 18.3828352,17.4328397 C18.1862671,17.4328397 17.9806002,17.3569999 17.7718432,17.2072484 C17.5586226,17.0542834 17.3978201,16.830854 17.2802798,16.5241644 C17.1611372,16.2143781 17.1161583,15.8279924 17.1463732,15.3759335 C17.1769313,14.9199598 17.3374477,14.3798496 17.6235158,13.7713199 C17.8086389,13.3681069 18.0569385,12.976638 18.3608608,12.6091831 C18.6668433,12.2397416 19.0044712,11.9141797 19.3644169,11.6419043 C19.7238475,11.3694536 20.1007891,11.151458 20.4846548,10.9936435 C20.8608524,10.8383998 21.2230871,10.7596385 21.5608867,10.7596385 C21.9274133,10.7596385 22.2129664,10.7904302 22.4097062,10.8509618 C22.6151442,10.914298 23.010455,11.1336374 23.2849636,11.1631437 C23.718558,11.1956882 23.8320353,10.6739244 23.5588428,10.4082514 C23.4114883,10.2648686 23.1860787,10.1463762 22.8699102,10.0459966 C22.5706803,9.95087545 22.1955127,9.88578644 21.7555664,9.85219023 C21.3141894,9.81929515 20.8270324,9.85032052 20.3181871,9.94316293 C15.7980933,10.9532696 14.2171363,14.6278189 14.021026,15.2087704 C13.7780483,16.089926 10.8483536,18.9132349 10.6157337,15.8337184 C10.5333296,15.231908 10.4786797,14.565885 10.4536723,13.854288 C10.4276349,13.1308885 10.3853456,12.4561597 10.3278344,11.8485648 C10.2695221,11.2324395 10.1732695,10.7046576 10.0415946,10.2804689 C9.89017706,9.79358674 9.6314053,9.54696133 9.27220353,9.54696133 C8.98871054,9.54696133 8.69011012,9.74310478 8.35934922,10.1466683 C8.06011933,10.511903 7.74738432,10.9722003 7.42984241,11.5147061 C7.11647792,12.0496747 6.80030941,12.6420782 6.48997786,13.2756151 C6.18227866,13.9038935 5.8904308,14.4867732 5.61500654,15.0232609 C5.34164238,15.5552496 5.09677631,16.0059063 4.88733255,16.362143 C4.80887698,16.4959436 4.37213525,17.0461619 3.87542164,15.9841126 C3.73069944,15.7142912 3.58775121,15.3994216 3.45029659,15.0479176 C3.36709134,14.8361738 3.28726237,14.6145557 3.21172528,14.3861598 C3.10809068,14.0604226 3.76778128,12.9567724 4.00801213,12.5370827 C4.30237789,12.0233236 4.50884594,11.5468416 4.62169378,11.1197315 C4.74083637,10.6687827 4.72704513,10.2917455 4.58060618,9.99977985 C4.42323723,9.686371 4.06414992,9.52744631 3.51312972,9.52744631 C3.08663127,9.52744631 2.70276551,9.58651722 2.37217628,9.70337361 C2.04255987,9.82017157 1.75162762,9.97775242 1.5075627,10.1713835 C1.26458505,10.3647224 1.05559909,10.5884439 0.886956812,10.8365301 C0.72111856,11.0804678 0.583377816,11.3342214 0.477225312,11.5915976 C0.22629338,12.1843517 0.0728157424,12.8601322 0.0203403533,13.6013523 C-0.0311049846,14.7441494 0.0151328719,15.7818342 0.157966646,16.6822711 C0.22234485,17.0657354 0.311387059,17.4466872 0.422403695,17.8125061 C0.534278706,18.1831746 0.682434412,18.523402 0.862865058,18.8233139 C1.04838873,19.1322238 1.28198147,19.3809526 1.55694793,19.5627228 C1.83941088,19.7503357 2.17984282,19.8453984 2.56937387,19.8453984 C2.96577193,19.8453984 3.3562758,19.6875254 3.72978384,19.375811 C4.08515152,19.0809823 4.42495399,18.7103722 4.74003522,18.2744395 C5.05036677,17.8458102 5.34896719,17.3701463 5.62753883,16.8605355 C5.90370702,16.3558328 6.15767188,15.8903938 6.38857503,15.4640432 C6.62256835,15.0334858 6.82056709,14.688701 6.9940735,14.4102907 C6.9940735,14.4102907 7.10737914,14.2353567 7.17685037,14.117098 C7.24626438,13.9989562 7.27447634,14.1477728 7.27447634,14.1477728 L7.33032801,15.3920597 C7.34972731,15.8212148 7.38892648,16.295009 7.44678103,16.8000623 C7.5058373,17.3151069 7.61216148,17.7968474 7.76289231,18.2314947 C7.91825838,18.6799311 8.15167944,19.0614673 8.45663184,19.3658782 C8.77537548,19.6841366 9.19872654,19.8453984 9.7154117,19.8453984 C10.1702938,19.8453984 10.6240314,19.755419 11.0645499,19.5784984 C11.4955692,19.4052588 11.9100504,19.1885486 12.296434,18.9344444 C12.6792125,18.682911 13.0420767,18.4033905 13.3753555,18.1034786 C13.5298632,17.9641857 13.6068309,17.9072767 13.8098655,17.6969936 C14.0128428,17.4865937 14.0780221,17.7839932 14.0780221,17.7839932 C14.1259767,18.0334231 14.2004266,18.2654415 14.2993687,18.474147 C14.4986836,18.895648 14.8012898,19.2334214 15.1986034,19.4775929 C15.5944293,19.7218227 16.0953775,19.8453984 16.6878859,19.8453984 C17.2419962,19.8453984 17.7852911,19.6817994 18.3025485,19.3591589 C18.8044696,19.0467434 19.2578066,18.6917921 19.6501416,18.3048221 C20.0398444,17.920014 20.4442539,17.49565 20.609291,17.2351771 C20.8194787,16.897579 20.8959314,17.277596 20.8959314,17.277596 C20.9897233,17.582708 21.1301536,17.9145802 21.3132166,18.263864 C21.5193985,18.6581959 21.7888142,19.0192821 22.1142531,19.3374821 C22.4581758,19.6744959 23.0449045,19.8777676 23.5480845,19.8777676 C24.0029666,19.8777676 24.4567614,19.7878466 24.8972227,19.6108676 C25.8955713,19.1651189 27.0547223,18.1018426 27.6060859,17.6085917 C28.0303526,17.2251275 28.2675505,17.6327226 28.4155917,17.874031 C29.1404617,19.0557413 30.2814151,19.8529356 31.4674619,19.8529356 C32.8627236,19.8529356 34.3411333,18.2219125 35.0122689,17.1302985 C35.4873514,16.4092361 35.679971,19.8453984 37.9324642,19.8453984 C38.2270589,19.8453984 38.5178194,19.7695001 38.7968489,19.6203914 C39.0659784,19.4756647 39.3242924,19.2849551 39.5642943,19.053521 C39.8009772,18.8252421 40.030278,18.5641265 40.246131,18.2770103 C40.4592944,17.9933414 40.6596394,17.6947149 40.8417295,17.3900118 C41.0903725,16.9818909 41.3829642,16.43623 41.5479441,16.052941 C41.793783,15.4600701 41.8975893,16.9127703 41.9428543,17.3202486 C41.9894928,17.7401136 42.087176,18.1383602 42.2330999,18.5041791 C42.3840024,18.882268 42.6135894,19.2020455 42.9156805,19.45428 C43.2001463,19.6920244 43.5828676,19.8213844 44.0530288,19.8383286 L44.146134,19.8418927 C47.5565765,19.5265557 49.5737602,14.2480356 50.2443808,11.9657718 C50.2895314,11.8120472 50.4299617,11.6277647 50.8335701,11.7442705 C51.0053598,11.7698621 51.1768633,11.7993099 51.3473368,11.8313285 C51.5090548,11.8623539 51.6570961,11.9052986 51.7875692,11.9593447 C51.8486856,11.9852868 51.9571843,12.0397419 52.0092019,12.1197885 C52.0596744,12.2151433 52.1075718,12.4171296 52.0929222,12.9144704 C51.7591856,18.4904485 53.0531017,19.8529356 54.2570599,19.8529356 C56.5446321,19.8529356 59.1560981,16.2375741 59.9157609,14.8267084 C59.9157609,14.8267084 60.3510148,14.0393301 60.2410282,14.82256 C60.1459202,15.5045339 60.0790813,15.9567098 60.0362769,16.3109599 C59.9636011,16.9082714 59.9704681,17.4671371 60.0563629,17.9719567 C60.1447757,18.4923182 60.3488975,18.9367231 60.6636354,19.2926092 C60.9893032,19.6613496 61.495974,19.8482614 62.1695703,19.8482614 C62.623594,19.8482614 63.0835119,19.7586909 63.5365056,19.5820041 C63.979771,19.409115 64.4099318,19.1930476 64.815257,18.9392939 C65.2184648,18.6869425 65.5977526,18.4075973 65.9432203,18.1083281 C66.2808482,17.8156613 66.5849423,17.5349722 66.8470903,17.2743824 C66.9567335,17.1650049 67.0557329,17.0642747 67.145004,16.9711985 C67.6229478,16.4896918 67.8268407,17.0108713 67.893279,17.1571755 C68.5743146,18.6569104 69.5763256,19.8066021 70.8010565,19.8490209 C70.8106703,19.8498973 70.8532458,19.8523513 70.8655492,19.8527603 L70.869326,19.8527603 C72.1949448,19.8527603 73.231863,18.9593348 73.9912969,18.0729206 C74.1978222,17.8193422 74.4326167,17.3981918 75.0176286,17.3862724 C75.8241015,17.4091763 75.8606683,18.8940705 76.9500047,19.4707568 C77.2590773,19.6479695 77.6286941,19.75501 78.0532468,19.790768 C78.0617162,19.7917029 78.0696704,19.7931636 78.0782542,19.79404 C78.0790554,19.7941568 78.0790554,19.7931051 78.0796848,19.7929299 C78.177368,19.8004087 78.276768,19.8055503 78.3801737,19.8055503 C78.934284,19.8055503 79.4776933,19.6419514 79.9946646,19.3192525 C80.4972151,19.0062526 80.9505521,18.5248043 81.342315,18.1381265 C81.7304726,17.7549544 81.9439794,17.5179112 82.1735663,17.2225566 C82.4683899,16.8430655 82.8220981,17.7468913 83.0057905,18.0977526 C83.2117436,18.4914418 83.4803008,18.9956187 83.8214194,19.2957643 C84.210836,19.6385041 84.585088,19.7855679 85.1338192,19.8327195 C86.2071326,19.9248607 88.3258336,19.9731808 90.3734611,16.5514504 C90.8552389,15.8691259 91.2350417,16.1242234 91.4026539,16.3256254 C91.4927262,16.4657362 91.49038,16.4676643 91.575302,16.6105797 C91.8191952,17.0215636 91.9740463,17.4710518 92.035506,17.9465988 C92.0957068,18.3787922 92.084319,18.7494023 92.000942,19.0470939 C91.9166495,19.3492846 91.8074641,19.6009348 91.6768192,19.7952086 C91.5464605,19.9881969 91.4135267,20.1373056 91.2811651,20.2378021 C91.1375302,20.3457774 91.0392175,20.4264084 90.9787306,20.4852456 C90.9194454,20.53006 90.8332073,20.5822948 90.6555234,20.6629257 C90.5156654,20.7266124 90.3633322,20.7576962 90.1905697,20.7576962 L90.1501116,20.7570535 C89.966648,20.7515613 89.7874191,20.6840767 89.5993203,20.5509188 C89.4207781,20.4235454 89.2717068,20.1706681 89.1554254,19.7990064 C89.1262407,19.6617001 89.0509897,19.5656442 88.9337355,19.5058721 C88.8531054,19.4648555 88.7726469,19.4439967 88.694592,19.4439967 C88.6669522,19.4439967 88.6397131,19.4465675 88.6121306,19.4516508 C88.4995689,19.4728018 88.4042319,19.5368391 88.335333,19.6370434 C88.2546456,19.7545425 88.2596242,19.9107211 88.3502687,20.1146355 C88.4979094,20.4430604 88.724349,20.7814181 89.0221483,21.1193668 C89.3262423,21.4643853 89.7034127,21.7271953 90.1431301,21.9000259 C90.5849649,22.0732071 91.0956414,22.1195991 91.6674343,22.03704 C92.2364804,21.9551821 92.8725371,21.660704 93.5584368,21.1625452 C94.2450232,20.6635684 94.72909,20.1229323 94.9967889,19.5563541 C95.2620271,18.994976 95.4065776,18.4536972 95.4266064,17.9480011 C95.4466352,17.4435321 95.3852327,16.9857472 95.2441157,16.587559 C95.1021403,16.1881438 94.9880335,15.9182056 94.8842272,15.738013" id="Fill-7" fill="#5CB8A3" mask="url(#mask-2)"></path>
                    </g>
                </g>
            </g>
        </g>
    </g>
</svg>